<svg width="56" height="56" viewBox="0 0 56 56" fill="none" xmlns="http://www.w3.org/2000/svg">
<path fill-rule="evenodd" clip-rule="evenodd" d="M43.7716 35.47C43.9659 35.3608 44.1275 35.2036 44.2401 35.014C44.3526 34.8244 44.4123 34.6092 44.413 34.39L44.436 27.1562C44.4367 26.937 44.4964 26.7218 44.6089 26.5323C44.7215 26.3427 44.8831 26.1854 45.0774 26.0762L49.0858 23.8237C49.2801 23.7146 49.5003 23.6574 49.7243 23.6577C49.9483 23.6581 50.1683 23.7161 50.3622 23.8259C50.5561 23.9356 50.7171 24.0934 50.829 24.2832C50.941 24.473 50.9999 24.6883 50.9999 24.9075V38.0588C50.9999 38.2786 50.9406 38.4946 50.828 38.6849C50.7153 38.8752 50.5534 39.033 50.3585 39.1425L35.2309 47.6425C35.0377 47.751 34.8188 47.8082 34.596 47.8084C34.3732 47.8087 34.1542 47.7519 33.9608 47.6438L22.0889 41.0013C21.8934 40.892 21.7308 40.7341 21.6177 40.5435C21.5046 40.353 21.445 40.1366 21.4449 39.9163V33.285C21.4449 33.2775 21.4539 33.2725 21.4616 33.2763C21.4679 33.28 21.4769 33.2763 21.4769 33.2675V33.26C21.4769 33.255 21.4794 33.25 21.4846 33.2475L31.2621 27.7525C31.2711 27.7475 31.2672 27.7337 31.257 27.7337C31.2543 27.7337 31.2517 27.7327 31.2498 27.7308C31.2479 27.7289 31.2468 27.7264 31.2468 27.7237L31.2659 21.2225C31.2668 21.0027 31.2084 20.7865 31.0967 20.5958C30.9849 20.405 30.8237 20.2465 30.6293 20.1362C30.4349 20.0259 30.2142 19.9677 29.9894 19.9675C29.7647 19.9673 29.5439 20.0251 29.3493 20.135L22.0826 24.2312C21.8886 24.3405 21.6687 24.398 21.4449 24.398C21.2211 24.398 21.0013 24.3405 20.8073 24.2312L13.5176 20.125C13.3234 20.0156 13.1032 19.9581 12.8791 19.9583C12.655 19.9584 12.4349 20.0162 12.2408 20.1259C12.0468 20.2356 11.8856 20.3932 11.7735 20.5831C11.6614 20.7729 11.6024 20.9883 11.6022 21.2075V32.9575C11.6024 33.1765 11.5437 33.3917 11.4321 33.5815C11.3205 33.7714 11.1598 33.9292 10.9663 34.0392C10.7727 34.1492 10.553 34.2075 10.3291 34.2083C10.1052 34.2091 9.88506 34.1524 9.69067 34.0437L5.64522 31.7812C5.44928 31.6718 5.28647 31.5135 5.17335 31.3224C5.06023 31.1314 5.00084 30.9145 5.00122 30.6938L5.037 10.1562C5.03749 9.9373 5.09675 9.72232 5.20886 9.53282C5.32097 9.34333 5.482 9.18596 5.67581 9.07647C5.86963 8.96699 6.08945 8.90923 6.31326 8.90897C6.53707 8.90871 6.75703 8.96596 6.95111 9.075L20.8086 16.8612C21.0022 16.97 21.2216 17.0273 21.4449 17.0273C21.6682 17.0273 21.8876 16.97 22.0813 16.8612L35.9349 9.075C36.1293 8.9658 36.3496 8.90855 36.5738 8.90897C36.7979 8.90939 37.018 8.96749 37.2119 9.07742C37.4058 9.18734 37.5668 9.34524 37.6786 9.53526C37.7905 9.72528 37.8492 9.94073 37.8491 10.16V30.7025C37.8491 30.9223 37.79 31.1381 37.6776 31.3284C37.5652 31.5187 37.4036 31.6766 37.2089 31.7862L29.9537 35.8738C29.7588 35.9836 29.597 36.1419 29.4847 36.3326C29.3724 36.5232 29.3135 36.7395 29.3141 36.9596C29.3146 37.1796 29.3745 37.3956 29.4877 37.5858C29.6009 37.7759 29.7634 37.9335 29.9588 38.0425L33.9608 40.2712C34.1542 40.379 34.373 40.4354 34.5955 40.435C34.8181 40.4345 35.0367 40.3772 35.2296 40.2688L43.7716 35.47ZM44.6111 17.0425C44.6112 17.2636 44.6713 17.4806 44.7852 17.6715C44.8991 17.8625 45.0627 18.0204 45.2594 18.1293C45.456 18.2382 45.6787 18.2942 45.9047 18.2914C46.1306 18.2887 46.3518 18.2274 46.5456 18.1137L50.3789 15.8637C50.5682 15.7528 50.7248 15.5959 50.8337 15.4081C50.9425 15.2204 50.9998 15.0083 50.9999 14.7925V10.2075C50.9995 9.98654 50.9393 9.76964 50.8253 9.57889C50.7113 9.38814 50.5477 9.23036 50.3511 9.12161C50.1544 9.01286 49.9319 8.95704 49.706 8.95983C49.4802 8.96262 49.2591 9.02393 49.0654 9.1375L45.2321 11.3875C45.0428 11.4984 44.8862 11.6554 44.7773 11.8431C44.6685 12.0308 44.6112 12.2429 44.6111 12.4587V17.0437V17.0425Z" fill="#0094FF"/>
</svg>
